<svg xmlns="http://www.w3.org/2000/svg" xmlns:xlink="http://www.w3.org/1999/xlink" xmlns:lucid="lucid" width="1181" height="281"><g transform="translate(-39.5 -119.5)" lucid:page-tab-id="0_0"><path d="M300 120h80v40h-80zM380 120h80v40h-80zM460 120h80v40h-80zM540 120h80v40h-80zM620 120h80v40h-80zM700 120h80v40h-80zM780 120h80v40h-80zM860 120h80v40h-80z" fill="#fff"/><path d="M300 120v40M300 120h80M300 160h80M380 120v40M380 120h80M380 160h80M460 120v40M460 120h80M460 160h80M540 120v40M540 120h80M540 160h80M620 120v40M620 120h80M620 160h80M700 120v40M700 120h80M700 160h80M780 120v40M780 120h80M780 160h80M860 120v40M940 120v40M860 120h80M860 160h80" stroke="#000" fill="none"/><use xlink:href="#a" transform="matrix(1,0,0,1,305,125) translate(25 18.6)"/><use xlink:href="#b" transform="matrix(1,0,0,1,385,125) translate(25 18.6)"/><use xlink:href="#c" transform="matrix(1,0,0,1,465,125) translate(25 18.6)"/><use xlink:href="#d" transform="matrix(1,0,0,1,545,125) translate(25 18.6)"/><use xlink:href="#e" transform="matrix(1,0,0,1,625,125) translate(25 18.6)"/><use xlink:href="#f" transform="matrix(1,0,0,1,705,125) translate(25 18.6)"/><use xlink:href="#g" transform="matrix(1,0,0,1,785,125) translate(25 18.6)"/><use xlink:href="#h" transform="matrix(1,0,0,1,865,125) translate(25 18.6)"/><path d="M160 200h80v40h-80zM240 200h80v40h-80zM320 200h80v40h-80zM400 200h80v40h-80z" fill="#fff"/><path d="M160 200v40M160 200h80M160 240h80M240 200v40M240 200h80M240 240h80M320 200v40M320 200h80M320 240h80M400 200v40M480 200v40M400 200h80M400 240h80" stroke="#000" fill="none"/><use xlink:href="#a" transform="matrix(1,0,0,1,165,205) translate(25 18.6)"/><use xlink:href="#c" transform="matrix(1,0,0,1,245,205) translate(25 18.6)"/><use xlink:href="#e" transform="matrix(1,0,0,1,325,205) translate(25 18.6)"/><use xlink:href="#g" transform="matrix(1,0,0,1,405,205) translate(25 18.6)"/><path d="M780 200h80v40h-80zM860 200h80v40h-80zM940 200h80v40h-80zM1020 200h80v40h-80z" fill="#fff"/><path d="M780 200v40M780 200h80M780 240h80M860 200v40M860 200h80M860 240h80M940 200v40M940 200h80M940 240h80M1020 200v40M1100 200v40M1020 200h80M1020 240h80" stroke="#000" fill="none"/><use xlink:href="#b" transform="matrix(1,0,0,1,785,205) translate(25 18.6)"/><use xlink:href="#d" transform="matrix(1,0,0,1,865,205) translate(25 18.6)"/><use xlink:href="#f" transform="matrix(1,0,0,1,945,205) translate(25 18.6)"/><use xlink:href="#h" transform="matrix(1,0,0,1,1025,205) translate(25 18.6)"/><path d="M80 280h80v40H80zM160 280h80v40h-80z" fill="#fff"/><path d="M80 280v40M80 280h80M80 320h80M160 280v40M240 280v40M160 280h80M160 320h80" stroke="#000" fill="none"/><use xlink:href="#a" transform="matrix(1,0,0,1,85,285) translate(25 18.6)"/><use xlink:href="#e" transform="matrix(1,0,0,1,165,285) translate(25 18.6)"/><path d="M400 280h80v40h-80zM480 280h80v40h-80z" fill="#fff"/><path d="M400 280v40M400 280h80M400 320h80M480 280v40M560 280v40M480 280h80M480 320h80" stroke="#000" fill="none"/><use xlink:href="#c" transform="matrix(1,0,0,1,405,285) translate(25 18.6)"/><use xlink:href="#g" transform="matrix(1,0,0,1,485,285) translate(25 18.6)"/><path d="M700 280h80v40h-80zM780 280h80v40h-80z" fill="#fff"/><path d="M700 280v40M700 280h80M700 320h80M780 280v40M860 280v40M780 280h80M780 320h80" stroke="#000" fill="none"/><use xlink:href="#b" transform="matrix(1,0,0,1,705,285) translate(25 18.6)"/><use xlink:href="#f" transform="matrix(1,0,0,1,785,285) translate(25 18.6)"/><path d="M1020 280h80v40h-80zM1100 280h80v40h-80z" fill="#fff"/><path d="M1020 280v40M1020 280h80M1020 320h80M1100 280v40M1180 280v40M1100 280h80M1100 320h80" stroke="#000" fill="none"/><use xlink:href="#d" transform="matrix(1,0,0,1,1025,285) translate(25 18.6)"/><use xlink:href="#h" transform="matrix(1,0,0,1,1105,285) translate(25 18.6)"/><path d="M40 360h80v40H40z" fill="#fff"/><path d="M40 360v40M120 360v40M40 360h80M40 400h80" stroke="#000" fill="none"/><use xlink:href="#a" transform="matrix(1,0,0,1,45,365) translate(25 18.6)"/><path d="M200 360h80v40h-80z" fill="#fff"/><path d="M200 360v40M280 360v40M200 360h80M200 400h80" stroke="#000" fill="none"/><use xlink:href="#e" transform="matrix(1,0,0,1,205,365) translate(25 18.6)"/><path d="M360 360h80v40h-80z" fill="#fff"/><path d="M360 360v40M440 360v40M360 360h80M360 400h80" stroke="#000" fill="none"/><use xlink:href="#c" transform="matrix(1,0,0,1,365,365) translate(25 18.6)"/><path d="M520 360h80v40h-80z" fill="#fff"/><path d="M520 360v40M600 360v40M520 360h80M520 400h80" stroke="#000" fill="none"/><use xlink:href="#g" transform="matrix(1,0,0,1,525,365) translate(25 18.6)"/><path d="M660 360h80v40h-80z" fill="#fff"/><path d="M660 360v40M740 360v40M660 360h80M660 400h80" stroke="#000" fill="none"/><use xlink:href="#b" transform="matrix(1,0,0,1,665,365) translate(25 18.6)"/><path d="M820 360h80v40h-80z" fill="#fff"/><path d="M820 360v40M900 360v40M820 360h80M820 400h80" stroke="#000" fill="none"/><use xlink:href="#f" transform="matrix(1,0,0,1,825,365) translate(25 18.6)"/><path d="M980 360h80v40h-80z" fill="#fff"/><path d="M980 360v40M1060 360v40M980 360h80M980 400h80" stroke="#000" fill="none"/><use xlink:href="#d" transform="matrix(1,0,0,1,985,365) translate(25 18.6)"/><path d="M1140 360h80v40h-80z" fill="#fff"/><path d="M1140 360v40M1220 360v40M1140 360h80M1140 400h80" stroke="#000" fill="none"/><use xlink:href="#h" transform="matrix(1,0,0,1,1145,365) translate(25 18.6)"/><path d="M620 161v13a6 6 0 0 1-6 6H322.72a3.12 3.12 0 0 0-3.12 3.12" stroke="#3a414a" fill="none"/><path d="M620.48 161h-.96v-.5h.96z" stroke="#3a414a" stroke-width=".05" fill="#3a414a"/><path d="M319.6 197.88l-4.64-14.26h9.28z" stroke="#3a414a" fill="#3a414a"/><path d="M620 161v13a6 6 0 0 0 6 6h308.48a3.12 3.12 0 0 1 3.12 3.12" stroke="#3a414a" fill="none"/><path d="M620.48 161h-.96v-.5h.96z" stroke="#3a414a" stroke-width=".05" fill="#3a414a"/><path d="M937.6 197.88l-4.63-14.26h9.26z" stroke="#3a414a" fill="#3a414a"/><path d="M320 241v13a6 6 0 0 1-6 6H164.72a3.12 3.12 0 0 0-3.12 3.12" stroke="#3a414a" fill="none"/><path d="M320.48 241h-.96v-.5h.96z" stroke="#3a414a" stroke-width=".05" fill="#3a414a"/><path d="M161.6 277.88l-4.63-14.26h9.27z" stroke="#3a414a" fill="#3a414a"/><path d="M320 241v13a6 6 0 0 0 6 6h150.48a3.12 3.12 0 0 1 3.12 3.12" stroke="#3a414a" fill="none"/><path d="M320.48 241h-.96v-.5h.96z" stroke="#3a414a" stroke-width=".05" fill="#3a414a"/><path d="M479.6 277.88l-4.64-14.26h9.28z" stroke="#3a414a" fill="#3a414a"/><path d="M940 241v13a6 6 0 0 1-6 6H782.72a3.12 3.12 0 0 0-3.12 3.12" stroke="#3a414a" fill="none"/><path d="M940.48 241h-.96v-.5h.96z" stroke="#3a414a" stroke-width=".05" fill="#3a414a"/><path d="M779.6 277.88l-4.63-14.26h9.26z" stroke="#3a414a" fill="#3a414a"/><path d="M940 241v13a6 6 0 0 0 6 6h152.48a3.12 3.12 0 0 1 3.12 3.12" stroke="#3a414a" fill="none"/><path d="M940.48 241h-.96v-.5h.96z" stroke="#3a414a" stroke-width=".05" fill="#3a414a"/><path d="M1101.6 277.88l-4.63-14.26h9.26z" stroke="#3a414a" fill="#3a414a"/><path d="M159.6 321v13a6 6 0 0 1-6 6H88.72a3.12 3.12 0 0 0-3.12 3.12" stroke="#3a414a" fill="none"/><path d="M160.07 321h-.94v-.5h.94z" stroke="#3a414a" stroke-width=".05" fill="#3a414a"/><path d="M85.6 357.88l-4.63-14.26h9.27z" stroke="#3a414a" fill="#3a414a"/><path d="M159.6 321v13a6 6 0 0 0 6 6h70.88a3.12 3.12 0 0 1 3.12 3.12" stroke="#3a414a" fill="none"/><path d="M160.07 321h-.94v-.5h.94z" stroke="#3a414a" stroke-width=".05" fill="#3a414a"/><path d="M239.6 357.88l-4.63-14.26h9.27z" stroke="#3a414a" fill="#3a414a"/><path d="M477.6 321v13a6 6 0 0 1-6 6h-62.88a3.12 3.12 0 0 0-3.12 3.12" stroke="#3a414a" fill="none"/><path d="M478.07 321h-.94v-.5h.94z" stroke="#3a414a" stroke-width=".05" fill="#3a414a"/><path d="M405.6 357.88l-4.64-14.26h9.28z" stroke="#3a414a" fill="#3a414a"/><path d="M477.6 321v13a6 6 0 0 0 6 6h70.88a3.12 3.12 0 0 1 3.12 3.12" stroke="#3a414a" fill="none"/><path d="M478.07 321h-.94v-.5h.94z" stroke="#3a414a" stroke-width=".05" fill="#3a414a"/><path d="M557.6 357.88l-4.63-14.26h9.26z" stroke="#3a414a" fill="#3a414a"/><path d="M779.6 321v13a6 6 0 0 1-6 6h-76.88a3.12 3.12 0 0 0-3.12 3.12" stroke="#3a414a" fill="none"/><path d="M780.08 321h-.96v-.5h.96z" stroke="#3a414a" stroke-width=".05" fill="#3a414a"/><path d="M693.6 357.88l-4.63-14.26h9.26z" stroke="#3a414a" fill="#3a414a"/><path d="M779.6 321v13a6 6 0 0 0 6 6h68.88a3.12 3.12 0 0 1 3.12 3.12" stroke="#3a414a" fill="none"/><path d="M780.08 321h-.96v-.5h.96z" stroke="#3a414a" stroke-width=".05" fill="#3a414a"/><path d="M857.6 357.88l-4.63-14.26h9.26z" stroke="#3a414a" fill="#3a414a"/><path d="M1097.6 321v13a6 6 0 0 1-6 6h-74.88a3.12 3.12 0 0 0-3.12 3.12" stroke="#3a414a" fill="none"/><path d="M1098.08 321h-.95v-.5h.94z" stroke="#3a414a" stroke-width=".05" fill="#3a414a"/><path d="M1013.6 357.88l-4.63-14.26h9.26z" stroke="#3a414a" fill="#3a414a"/><path d="M1096.9 321v13a6 6 0 0 0 6 6h83.58a3.12 3.12 0 0 1 3.12 3.12" stroke="#3a414a" fill="none"/><path d="M1097.4 321h-.96v-.5h.95z" stroke="#3a414a" stroke-width=".05" fill="#3a414a"/><path d="M1189.6 357.88l-4.63-14.26h9.26z" stroke="#3a414a" fill="#3a414a"/><defs><path d="M141-36C126-15 110 5 73 4 37 3 15-17 15-53c-1-64 63-63 125-63 3-35-9-54-41-54-24 1-41 7-42 31l-33-3c5-37 33-52 76-52 45 0 72 20 72 64v82c-1 20 7 32 28 27v20c-31 9-61-2-59-35zM48-53c0 20 12 33 32 33 41-3 63-29 60-74-43 2-92-5-92 41" id="i"/><path d="M101-251c68 0 85 55 85 127S166 4 100 4C33 4 14-52 14-124c0-73 17-127 87-127zm-1 229c47 0 54-49 54-102s-4-102-53-102c-51 0-55 48-55 102 0 53 5 102 54 102" id="j"/><g id="a"><use transform="matrix(0.05,0,0,0.05,0,0)" xlink:href="#i"/><use transform="matrix(0.05,0,0,0.05,10,0)" xlink:href="#j"/></g><path d="M27 0v-27h64v-190l-56 39v-29l58-41h29v221h61V0H27" id="k"/><g id="b"><use transform="matrix(0.05,0,0,0.05,0,0)" xlink:href="#i"/><use transform="matrix(0.05,0,0,0.05,10,0)" xlink:href="#k"/></g><path d="M101-251c82-7 93 87 43 132L82-64C71-53 59-42 53-27h129V0H18c2-99 128-94 128-182 0-28-16-43-45-43s-46 15-49 41l-32-3c6-41 34-60 81-64" id="l"/><g id="c"><use transform="matrix(0.05,0,0,0.05,0,0)" xlink:href="#i"/><use transform="matrix(0.05,0,0,0.05,10,0)" xlink:href="#l"/></g><path d="M126-127c33 6 58 20 58 59 0 88-139 92-164 29-3-8-5-16-6-25l32-3c6 27 21 44 54 44 32 0 52-15 52-46 0-38-36-46-79-43v-28c39 1 72-4 72-42 0-27-17-43-46-43-28 0-47 15-49 41l-32-3c6-42 35-63 81-64 48-1 79 21 79 65 0 36-21 52-52 59" id="m"/><g id="d"><use transform="matrix(0.05,0,0,0.05,0,0)" xlink:href="#i"/><use transform="matrix(0.05,0,0,0.05,10,0)" xlink:href="#m"/></g><path d="M155-56V0h-30v-56H8v-25l114-167h33v167h35v25h-35zm-30-156c-27 46-58 90-88 131h88v-131" id="n"/><g id="e"><use transform="matrix(0.05,0,0,0.05,0,0)" xlink:href="#i"/><use transform="matrix(0.05,0,0,0.05,10,0)" xlink:href="#n"/></g><path d="M54-142c48-35 137-8 131 61C196 18 31 33 14-55l32-4c7 23 22 37 52 37 35-1 51-22 54-58 4-55-73-65-99-34H22l8-134h141v27H59" id="o"/><g id="f"><use transform="matrix(0.05,0,0,0.05,0,0)" xlink:href="#i"/><use transform="matrix(0.05,0,0,0.05,10,0)" xlink:href="#o"/></g><path d="M110-160c48 1 74 30 74 79 0 53-28 85-80 85-65 0-83-55-86-122-5-90 50-162 133-122 14 7 22 21 27 39l-31 6c-5-40-67-38-82-6-9 19-15 44-15 74 11-20 30-34 60-33zm-7 138c34 0 49-23 49-58s-16-56-50-56c-29 0-50 16-49 49 1 36 15 65 50 65" id="p"/><g id="g"><use transform="matrix(0.05,0,0,0.05,0,0)" xlink:href="#i"/><use transform="matrix(0.05,0,0,0.05,10,0)" xlink:href="#p"/></g><path d="M64 0c3-98 48-159 88-221H18v-27h164v26C143-157 98-101 97 0H64" id="q"/><g id="h"><use transform="matrix(0.05,0,0,0.05,0,0)" xlink:href="#i"/><use transform="matrix(0.05,0,0,0.05,10,0)" xlink:href="#q"/></g></defs></g></svg>